Coordinates
version=1
nRows=16
nColumns=28
inDegrees=yes

Units are S.I. units (second, meters, Newtons, ...)
Angles are in degrees.

endheader
time	pelvis_tilt	pelvis_list	pelvis_rotation	pelvis_tx	pelvis_ty	pelvis_tz	hip_flexion_r	hip_adduction_r	hip_rotation_r	knee_angle_r	ankle_angle_r	subtalar_angle_r	mtp_angle_r	hip_flexion_l	hip_adduction_l	hip_rotation_l	knee_angle_l	socket_flexion	socket_adduction	socket_rotation	socket_tx	socket_ty	socket_tz	foot_flex	lumbar_extension	lumbar_bending	lumbar_rotation
      0.93750000	     14.31996484	     -1.96297158	     -9.03799877	      0.48377734	      1.04427825	      0.31651016	     -8.07298559	      1.94384559	     -8.85859189	    -20.35726499	      7.48148130	      6.18823912	     38.95382396	     -9.34040657	     -0.13900636	     -5.70972530	    -50.91945278	      0.00000000	      0.00000000	      0.00000000	      0.00000000	      0.00000000	      0.00000000	      1.28131172	    -23.94110373	     -0.28430193	     15.10801602
      0.94166667	     14.34767278	     -1.81810275	     -9.32632322	      0.48822878	      1.04527128	      0.31701621	     -8.49219041	      1.67386598	     -8.77652772	    -20.04751968	      7.36779164	      6.42554795	     39.02654821	     -8.84348991	     -0.00161723	     -5.58155806	    -50.49601473	      0.00000000	      0.00000000	      0.00000000	      0.00000000	      0.00000000	      0.00000000	      1.27336935	    -23.98266195	     -0.56912553	     15.26598921
      0.94583333	     14.37466282	     -1.68379628	     -9.62086606	      0.49264491	      1.04623187	      0.31755802	     -8.89541513	      1.40954501	     -8.70652501	    -19.76492617	      7.23286692	      6.70369393	     39.11821248	     -8.36464833	      0.12202372	     -5.45941300	    -50.01874721	      0.00000000	      0.00000000	      0.00000000	      0.00000000	      0.00000000	      0.00000000	      1.25771445	    -24.03188683	     -0.86344131	     15.47095273
      0.95000000	     14.40272522	     -1.57467686	     -9.92774162	      0.49704025	      1.04715630	      0.31806212	     -9.28911094	      1.16216439	     -8.64745116	    -19.49627783	      7.10788244	      6.98346345	     39.21594219	     -7.89708364	      0.23562796	     -5.31188912	    -49.51435308	      0.00000000	      0.00000000	      0.00000000	      0.00000000	      0.00000000	      0.00000000	      1.25760592	    -24.07740923	     -1.11838515	     15.68419399
      0.95416667	     14.43111849	     -1.46106246	    -10.23076544	      0.50137658	      1.04803760	      0.31860018	     -9.67394039	      0.90845853	     -8.60230149	    -19.23346716	      6.95204457	      7.33233025	     39.35436568	     -7.43592171	      0.34154939	     -5.17410081	    -48.96864852	      0.00000000	      0.00000000	      0.00000000	      0.00000000	      0.00000000	      0.00000000	      1.22423177	    -24.13738838	     -1.40316660	     15.95095106
      0.95833333	     14.44919108	     -1.51353329	    -10.49459739	      0.50519211	      1.04880151	      0.31899405	     -9.92842230	      0.82237392	     -8.65625472	    -19.21583633	      6.94640449	      7.35991473	     39.36670233	     -6.89169482	      0.24116086	     -5.06299130	    -48.57305672	      0.00000000	      0.00000000	      0.00000000	      0.00000000	      0.00000000	      0.00000000	      1.26760497	    -24.31885163	     -1.45665022	     15.97501395
      0.96250000	     14.42707028	     -1.34265712	    -10.78940646	      0.50992707	      1.04964081	      0.31945433	    -10.35882294	      0.52991996	     -8.49187317	    -18.76629491	      6.78269245	      7.70743875	     39.46623956	     -6.49060482	      0.45920311	     -4.74368971	    -47.78239210	      0.00000000	      0.00000000	      0.00000000	      0.00000000	      0.00000000	      0.00000000	      1.25934874	    -24.21300531	     -1.76171104	     16.21412319
      0.96666667	     14.43227297	     -1.38587390	    -11.03163524	      0.51368066	      1.05028972	      0.31985877	    -10.60229476	      0.44363982	     -8.54125481	    -18.73651485	      6.76605297	      7.74690731	     39.48012023	     -5.93536069	      0.34729830	     -4.63654421	    -47.34013807	      0.00000000	      0.00000000	      0.00000000	      0.00000000	      0.00000000	      0.00000000	      1.29320712	    -24.41484281	     -1.83189070	     16.24693975
      0.97083333	     14.39795328	     -1.18504018	    -11.32841719	      0.51846344	      1.05105223	      0.32037092	    -11.04395422	      0.12497644	     -8.37469445	    -18.21078634	      6.46543828	      8.28225941	     39.64132689	     -5.54251838	      0.58675195	     -4.32032319	    -46.47445704	      0.00000000	      0.00000000	      0.00000000	      0.00000000	      0.00000000	      0.00000000	      1.17557000	    -24.27552427	     -2.21663880	     16.63260104
      0.97500000	     14.52210530	     -1.03584179	    -11.66346620	      0.52283013	      1.05167124	      0.32069763	    -11.29637784	     -0.39167467	     -9.06689051	    -18.37221052	      6.23484424	     10.10563081	     41.69561168	     -5.27187638	      0.79402021	     -4.10913040	    -45.67837840	      0.00000000	      0.00000000	      0.00000000	      0.00000000	      0.00000000	      0.00000000	      1.14766857	    -24.40928393	     -2.57918683	     17.23468939
      0.97916667	     14.45584824	     -1.01071804	    -11.87942821	      0.52702415	      1.05222344	      0.32103879	    -11.59516732	     -0.50599954	     -8.96761648	    -18.08662828	      5.98762397	     10.19979379	     41.82277733	     -4.76814359	      0.79396541	     -3.78030813	    -44.95988215	      0.00000000	      0.00000000	      0.00000000	      0.00000000	      0.00000000	      0.00000000	      1.12807219	    -24.39685599	     -2.69519986	     17.30543456
      0.98333333	     14.41181769	     -1.05163456	    -12.11966333	      0.53108180	      1.05274118	      0.32130115	    -11.83608855	     -0.58863511	     -8.90472500	    -17.99220056	      5.93599311	     10.26496100	     41.85971665	     -4.31140335	      0.73596928	     -3.46930550	    -44.21096199	      0.00000000	      0.00000000	      0.00000000	      0.00000000	      0.00000000	      0.00000000	      1.15960855	    -24.44844632	     -2.72987174	     17.35152851
      0.98750000	     14.34052798	     -1.03474196	    -12.34505249	      0.53528166	      1.05320667	      0.32162503	    -12.12137422	     -0.69932221	     -8.78122410	    -17.72903425	      5.82632941	     10.41275079	     41.90815337	     -3.84978869	      0.73184087	     -3.11412119	    -43.39371242	      0.00000000	      0.00000000	      0.00000000	      0.00000000	      0.00000000	      0.00000000	      1.12508915	    -24.41585853	     -2.83170447	     17.45228220
      0.99166667	     14.22964958	     -1.01410650	    -12.57123059	      0.53950309	      1.05357982	      0.32203810	    -12.39515784	     -0.80043417	     -8.66307526	    -17.38904195	      5.53178033	     10.72413407	     42.05212652	     -3.33715898	      0.69750296	     -2.80032344	    -42.59679587	      0.00000000	      0.00000000	      0.00000000	      0.00000000	      0.00000000	      0.00000000	      1.06599225	    -24.35895107	     -2.97872149	     17.72053513
      0.99583333	     14.17732225	     -1.08239215	    -12.80089080	      0.54343804	      1.05392315	      0.32231227	    -12.60175549	     -0.85267598	     -8.59846508	    -17.35593442	      5.50015908	     10.80673260	     42.08843994	     -2.90176607	      0.59236342	     -2.45601549	    -41.77791828	      0.00000000	      0.00000000	      0.00000000	      0.00000000	      0.00000000	      0.00000000	      1.09326309	    -24.41448339	     -2.98847842	     17.77579659
      1.00000000	     14.08861695	     -1.11953874	    -13.01335496	      0.54750727	      1.05422650	      0.32259089	    -12.83780083	     -0.90840384	     -8.48719740	    -17.17638200	      5.43737853	     10.95478000	     42.12738693	     -2.45102309	      0.51513972	     -2.06892395	    -40.90979565	      0.00000000	      0.00000000	      0.00000000	      0.00000000	      0.00000000	      0.00000000	      1.06016728	    -24.39799333	     -3.02975176	     17.87198385
